<svg xmlns="http://www.w3.org/2000/svg" viewBox="0 0 216 49" ><path d="M10.823 26.34h11.239a5.555 5.555 0 0 0 3.783 3.422c.776.21 1.589.248 2.372.117l5.61 9.708a5.6 5.6 0 0 0-1.11 2.203H17.225l-7.75-13.413a5.543 5.543 0 0 0 1.348-2.036zm13.673-6.813a5.558 5.558 0 0 0-2.437 2.867H10.823a5.543 5.543 0 0 0-1.347-2.036l7.75-13.413H32.72a5.525 5.525 0 0 0 1.12 2.212l-5.609 9.707a5.557 5.557 0 0 0-3.735.663zm15.093 18.22a5.62 5.62 0 0 0-2.334-.12l-5.624-9.736a5.624 5.624 0 0 0 .503-6.318 5.61 5.61 0 0 0-.492-.716l5.631-9.747c.8.126 1.617.074 2.404-.152l7.75 13.41-7.746 13.405a3.777 3.777 0 0 0-.092-.026zm10.97-13.38l-8.53-14.763a5.522 5.522 0 0 0 1.515-2.568 5.546 5.546 0 0 0-.559-4.24A5.555 5.555 0 0 0 39.59.194a5.554 5.554 0 0 0-4.242.558 5.547 5.547 0 0 0-2.629 3.484H15.66L7.128 18.999a5.507 5.507 0 0 0-1.536-.22A5.596 5.596 0 0 0 0 24.368a5.596 5.596 0 0 0 5.592 5.588c.518 0 1.033-.074 1.535-.22l8.532 14.766h17.06c.126.506.32.988.58 1.437a5.615 5.615 0 0 0 4.85 2.793 5.588 5.588 0 0 0 4.836-8.38 5.55 5.55 0 0 0-.956-1.22l8.292-14.351.238-.412zm33.039 3.845L90.824 14h4.314l.057 22.177h-4.032l.048-15.867-5.863 12.056h-3.501L75.984 20.31l.048 15.867H72L72.057 14h4.314l7.227 14.212zm33.195-4.56h-2.063v-3.155h2.157v-4.591h3.875v4.591h3.627v3.155h-3.627v6.184c0 2.624 2.064 2.999 3.158 2.999.437 0 .719-.063.719-.063v3.467s-.469.094-1.22.094c-2.219 0-6.626-.656-6.626-5.997v-6.684zm11.283-3.28h2.939v2.093c0 .624-.063 1.156-.063 1.156h.063c.75-1.843 2.97-3.624 5.439-3.624 2.657 0 4.22 1.218 4.752 3.592h.062c.875-1.905 3.064-3.592 5.627-3.592 3.563 0 5.22 2.03 5.22 6.06v10.12h-3.032v-9.464c0-2.218-.438-3.967-2.813-3.967-2.22 0-3.877 1.874-4.44 4.03-.155.655-.218 1.374-.218 2.186v7.215h-3.032v-9.464c0-2.062-.313-3.967-2.751-3.967-2.313 0-3.94 1.905-4.533 4.154-.156.625-.187 1.343-.187 2.062v7.215h-3.033V20.372zm36.823 5.935h.687v-.281c0-2.593-1.469-3.467-3.47-3.467-2.438 0-4.407 1.53-4.407 1.53l-1.251-2.218s2.282-1.874 5.909-1.874c4 0 6.251 2.187 6.251 6.185v9.995h-2.813v-1.5c0-.718.063-1.249.063-1.249h-.063s-1.281 3.124-5.064 3.124c-2.72 0-5.377-1.656-5.377-4.81 0-5.217 6.877-5.435 9.535-5.435zm-3.502 7.808c2.564 0 4.22-2.686 4.22-5.028v-.5h-.781c-2.282 0-6.408.156-6.408 2.998 0 1.281 1 2.53 2.97 2.53zm12.316-11.088h-2.063v-2.436h2.157v-4.56h2.938v4.56h3.814v2.436h-3.814v7.028c0 3.155 2.22 3.56 3.376 3.56.438 0 .719-.062.719-.062v2.686s-.437.063-1.062.063c-2.032 0-6.065-.625-6.065-5.904v-7.371zm17.88-3.03c3.97 0 5.94 2.312 5.94 2.312l-1.439 2.123s-1.688-1.81-4.377-1.81c-3.188 0-5.501 2.373-5.501 5.621 0 3.218 2.313 5.685 5.595 5.685 2.938 0 4.877-2.124 4.877-2.124l1.219 2.218s-2.188 2.53-6.314 2.53c-4.97 0-8.472-3.53-8.472-8.278 0-4.685 3.501-8.277 8.472-8.277zm9.751-5.872h3.033v8.09c0 .75-.063 1.312-.063 1.312h.063c.688-1.53 2.688-3.53 5.845-3.53 3.72 0 5.44 2.03 5.44 6.06v10.12h-3.033v-9.433c0-2.218-.469-3.967-3-3.967-2.377 0-4.346 1.624-5.002 3.904-.188.625-.25 1.344-.25 2.093v7.403h-3.033V14.125zm-93.582 11.932h.531v-.219c0-2.092-1.313-2.81-3.063-2.81-2.283 0-4.376 1.53-4.376 1.53l-1.501-2.843s2.47-1.968 6.252-1.968c4.189 0 6.627 2.312 6.627 6.341v9.964h-3.657V34.74c0-.625.062-1.124.062-1.124h-.062c.031 0-1.22 2.81-4.845 2.81-2.846 0-5.409-1.78-5.409-4.966 0-5.06 6.846-5.403 9.44-5.403zm-3.032 7.277c2.094 0 3.594-2.249 3.594-4.185v-.375h-.687c-2.032 0-5.315.281-5.315 2.5 0 1.061.782 2.06 2.408 2.06z" fill="#FFF" fill-rule="evenodd"/></svg>
